<mxfile host="Electron" modified="2024-01-13T03:04:38.455Z" agent="Mozilla/5.0 (X11; Linux x86_64) AppleWebKit/537.36 (KHTML, like Gecko) draw.io/22.1.18 Chrome/120.0.6099.199 Electron/28.1.2 Safari/537.36" etag="2djvDtXylbR5lgZBKfph" version="22.1.18" type="device">
  <diagram name="Page-1" id="5f0bae14-7c28-e335-631c-24af17079c00">
    <mxGraphModel dx="1114" dy="1027" grid="1" gridSize="10" guides="1" tooltips="1" connect="1" arrows="1" fold="1" page="1" pageScale="1" pageWidth="1100" pageHeight="850" background="none" math="0" shadow="0">
      <root>
        <mxCell id="0" />
        <mxCell id="1" parent="0" />
        <mxCell id="zzoACA5-Ss6NIEGgx-XW-1" value="u_fifo_sync_A" style="swimlane;" vertex="1" parent="1">
          <mxGeometry x="80" y="80" width="200" height="60" as="geometry" />
        </mxCell>
        <mxCell id="zzoACA5-Ss6NIEGgx-XW-2" value="u_fifo_sync_B" style="swimlane;" vertex="1" parent="1">
          <mxGeometry x="80" y="158" width="200" height="60" as="geometry" />
        </mxCell>
        <mxCell id="zzoACA5-Ss6NIEGgx-XW-3" value="u_fifo_sync_C" style="swimlane;" vertex="1" parent="1">
          <mxGeometry x="81" y="240" width="200" height="60" as="geometry" />
        </mxCell>
        <mxCell id="zzoACA5-Ss6NIEGgx-XW-4" value="u_fifo_sync_D" style="swimlane;" vertex="1" parent="1">
          <mxGeometry x="81" y="320" width="200" height="60" as="geometry" />
        </mxCell>
        <mxCell id="zzoACA5-Ss6NIEGgx-XW-5" value="weighted_round_robin_inst" style="ellipse;whiteSpace=wrap;html=1;align=center;newEdgeStyle={&quot;edgeStyle&quot;:&quot;entityRelationEdgeStyle&quot;,&quot;startArrow&quot;:&quot;none&quot;,&quot;endArrow&quot;:&quot;none&quot;,&quot;segment&quot;:10,&quot;curved&quot;:1,&quot;sourcePerimeterSpacing&quot;:0,&quot;targetPerimeterSpacing&quot;:0};treeFolding=1;treeMoving=1;" vertex="1" parent="1">
          <mxGeometry x="470" y="320" width="220" height="70" as="geometry" />
        </mxCell>
        <mxCell id="zzoACA5-Ss6NIEGgx-XW-6" value="PWM" style="html=1;whiteSpace=wrap;aspect=fixed;shape=isoRectangle;" vertex="1" parent="1">
          <mxGeometry x="522" y="425" width="100" height="60" as="geometry" />
        </mxCell>
        <mxCell id="zzoACA5-Ss6NIEGgx-XW-7" value="u_fifo_sync_E" style="swimlane;" vertex="1" parent="1">
          <mxGeometry x="480" y="187" width="200" height="60" as="geometry" />
        </mxCell>
        <mxCell id="zzoACA5-Ss6NIEGgx-XW-8" value="" style="shape=trapezoid;perimeter=trapezoidPerimeter;whiteSpace=wrap;html=1;fixedSize=1;rotation=90;" vertex="1" parent="1">
          <mxGeometry x="330" y="180" width="120" height="60" as="geometry" />
        </mxCell>
        <mxCell id="zzoACA5-Ss6NIEGgx-XW-10" value="" style="endArrow=classic;html=1;rounded=0;entryX=0.468;entryY=1.014;entryDx=0;entryDy=0;entryPerimeter=0;exitX=0.5;exitY=0.05;exitDx=0;exitDy=0;exitPerimeter=0;" edge="1" parent="1" source="zzoACA5-Ss6NIEGgx-XW-6" target="zzoACA5-Ss6NIEGgx-XW-5">
          <mxGeometry width="50" height="50" relative="1" as="geometry">
            <mxPoint x="500" y="460" as="sourcePoint" />
            <mxPoint x="550" y="410" as="targetPoint" />
          </mxGeometry>
        </mxCell>
        <mxCell id="zzoACA5-Ss6NIEGgx-XW-11" value="" style="endArrow=classic;html=1;rounded=0;entryX=1;entryY=0.5;entryDx=0;entryDy=0;" edge="1" parent="1" target="zzoACA5-Ss6NIEGgx-XW-8">
          <mxGeometry width="50" height="50" relative="1" as="geometry">
            <mxPoint x="390" y="360" as="sourcePoint" />
            <mxPoint x="400" y="310" as="targetPoint" />
          </mxGeometry>
        </mxCell>
        <mxCell id="zzoACA5-Ss6NIEGgx-XW-12" value="" style="endArrow=none;html=1;rounded=0;" edge="1" parent="1" target="zzoACA5-Ss6NIEGgx-XW-5">
          <mxGeometry width="50" height="50" relative="1" as="geometry">
            <mxPoint x="390" y="360" as="sourcePoint" />
            <mxPoint x="410" y="420" as="targetPoint" />
          </mxGeometry>
        </mxCell>
        <mxCell id="zzoACA5-Ss6NIEGgx-XW-13" value="" style="endArrow=classic;html=1;rounded=0;entryX=0.01;entryY=0.383;entryDx=0;entryDy=0;entryPerimeter=0;" edge="1" parent="1" target="zzoACA5-Ss6NIEGgx-XW-7">
          <mxGeometry width="50" height="50" relative="1" as="geometry">
            <mxPoint x="420" y="209" as="sourcePoint" />
            <mxPoint x="480" y="214" as="targetPoint" />
          </mxGeometry>
        </mxCell>
        <mxCell id="zzoACA5-Ss6NIEGgx-XW-14" value="" style="edgeStyle=elbowEdgeStyle;elbow=horizontal;endArrow=classic;html=1;curved=0;rounded=0;endSize=8;startSize=8;entryX=1;entryY=1;entryDx=0;entryDy=0;" edge="1" parent="1" target="zzoACA5-Ss6NIEGgx-XW-8">
          <mxGeometry width="50" height="50" relative="1" as="geometry">
            <mxPoint x="280" y="350" as="sourcePoint" />
            <mxPoint x="330" y="300" as="targetPoint" />
          </mxGeometry>
        </mxCell>
        <mxCell id="zzoACA5-Ss6NIEGgx-XW-15" value="" style="edgeStyle=elbowEdgeStyle;elbow=horizontal;endArrow=classic;html=1;curved=0;rounded=0;endSize=8;startSize=8;entryX=0.75;entryY=1;entryDx=0;entryDy=0;" edge="1" parent="1">
          <mxGeometry width="50" height="50" relative="1" as="geometry">
            <mxPoint x="280" y="260" as="sourcePoint" />
            <mxPoint x="360" y="220" as="targetPoint" />
          </mxGeometry>
        </mxCell>
        <mxCell id="zzoACA5-Ss6NIEGgx-XW-16" value="" style="edgeStyle=elbowEdgeStyle;elbow=horizontal;endArrow=classic;html=1;curved=0;rounded=0;endSize=8;startSize=8;entryX=0.358;entryY=0.967;entryDx=0;entryDy=0;entryPerimeter=0;" edge="1" parent="1" target="zzoACA5-Ss6NIEGgx-XW-8">
          <mxGeometry width="50" height="50" relative="1" as="geometry">
            <mxPoint x="280" y="190" as="sourcePoint" />
            <mxPoint x="330" y="140" as="targetPoint" />
          </mxGeometry>
        </mxCell>
        <mxCell id="zzoACA5-Ss6NIEGgx-XW-17" value="" style="edgeStyle=elbowEdgeStyle;elbow=horizontal;endArrow=classic;html=1;curved=0;rounded=0;endSize=8;startSize=8;entryX=0.133;entryY=1;entryDx=0;entryDy=0;entryPerimeter=0;" edge="1" parent="1" target="zzoACA5-Ss6NIEGgx-XW-8">
          <mxGeometry width="50" height="50" relative="1" as="geometry">
            <mxPoint x="280" y="110" as="sourcePoint" />
            <mxPoint x="330" y="60" as="targetPoint" />
          </mxGeometry>
        </mxCell>
        <mxCell id="zzoACA5-Ss6NIEGgx-XW-18" value="" style="endArrow=classic;html=1;rounded=0;entryX=0.01;entryY=0.383;entryDx=0;entryDy=0;entryPerimeter=0;" edge="1" parent="1">
          <mxGeometry width="50" height="50" relative="1" as="geometry">
            <mxPoint x="678" y="219" as="sourcePoint" />
            <mxPoint x="740" y="220" as="targetPoint" />
          </mxGeometry>
        </mxCell>
      </root>
    </mxGraphModel>
  </diagram>
</mxfile>
